<?xml version="1.0" encoding="UTF-8" standalone="no"?>
<svg
   xmlns:dc="http://purl.org/dc/elements/1.1/"
   xmlns:cc="http://creativecommons.org/ns#"
   xmlns:rdf="http://www.w3.org/1999/02/22-rdf-syntax-ns#"
   xmlns:svg="http://www.w3.org/2000/svg"
   xmlns="http://www.w3.org/2000/svg"
   xmlns:sodipodi="http://sodipodi.sourceforge.net/DTD/sodipodi-0.dtd"
   xmlns:inkscape="http://www.inkscape.org/namespaces/inkscape"
   version="1.1"
   id="レイヤー_1"
   x="0px"
   y="0px"
   width="1024px"
   height="1024px"
   viewBox="0 0 1024 1024"
   enable-background="new 0 0 1024 1024"
   xml:space="preserve"
   sodipodi:docname="sensu.svg"
   inkscape:version="0.92.2 (5c3e80d, 2017-08-06)"><metadata
     id="metadata21"><rdf:RDF><cc:Work
         rdf:about=""><dc:format>image/svg+xml</dc:format><dc:type
           rdf:resource="http://purl.org/dc/dcmitype/StillImage" /></cc:Work></rdf:RDF></metadata><defs
     id="defs19" /><sodipodi:namedview
     pagecolor="#ffffff"
     bordercolor="#666666"
     borderopacity="1"
     objecttolerance="10"
     gridtolerance="10"
     guidetolerance="10"
     inkscape:pageopacity="0"
     inkscape:pageshadow="2"
     inkscape:window-width="1184"
     inkscape:window-height="860"
     id="namedview17"
     showgrid="false"
     inkscape:zoom="0.4609375"
     inkscape:cx="433.5242"
     inkscape:cy="379.77912"
     inkscape:window-x="225"
     inkscape:window-y="35"
     inkscape:window-maximized="0"
     inkscape:current-layer="レイヤー_1" /><path
     style="fill:#b72245"
     d="m 511.82422,238.04661 c -223.734,0 -417.411142,128.54864 -511.24414185,315.80664 L 114.35156,610.75559 A 444.92377,444.92377 0 0 1 511.82227,364.62278 444.92377,444.92377 0 0 1 909.86914,611.14231 L 1023.4199,554.54466 C 929.71892,366.90966 735.83522,238.04661 511.82422,238.04661 Z"
     id="path2"
     inkscape:connector-curvature="0" /><g
     id="g4"
     transform="translate(-4.6863128e-8,99.796611)" /><g
     id="g6"
     transform="translate(-4.6863128e-8,99.796611)" /><g
     id="g8"
     transform="translate(-4.6863128e-8,99.796611)" /><g
     id="g10"
     transform="translate(-4.6863128e-8,99.796611)" /><g
     id="g12"
     transform="translate(-4.6863128e-8,99.796611)" /><g
     id="g14"
     transform="translate(-4.6863128e-8,99.796611)" /><path
     inkscape:connector-curvature="0"
     id="path31"
     style="font-style:normal;font-variant:normal;font-weight:normal;font-stretch:normal;font-size:medium;line-height:1.25;font-family:'UD Digi Kyokasho NK-B';-inkscape-font-specification:'UD Digi Kyokasho NK-B';letter-spacing:0px;word-spacing:0px;fill:#b72245;fill-opacity:1;stroke:none;stroke-width:2.07246494"
     d="m 307.43192,538.47319 h -68.78734 q -4.63914,0 -7.99853,-2.13038 -8.31847,-5.24402 -8.31847,-18.02632 0,-10.65192 6.23885,-16.55145 3.99927,-3.93301 10.07815,-3.93301 h 182.84635 q 5.11906,0 8.95835,2.78588 7.35865,5.73566 7.35865,17.5347 0,11.30742 -6.55879,16.87919 -3.99928,3.44139 -9.75821,3.44139 h -68.78734 v 188.94865 q 0,8.35766 -5.75895,13.4378 -6.39881,5.73565 -16.95687,5.73565 -14.23738,0 -19.99632,-9.5048 -2.55953,-4.09689 -2.55953,-9.66865 z" /><path
     inkscape:connector-curvature="0"
     id="path33"
     style="font-style:normal;font-variant:normal;font-weight:normal;font-stretch:normal;font-size:medium;line-height:1.25;font-family:'UD Digi Kyokasho NK-B';-inkscape-font-specification:'UD Digi Kyokasho NK-B';letter-spacing:0px;word-spacing:0px;fill:#b72245;fill-opacity:1;stroke:none;stroke-width:2.07246494"
     d="M 498.27679,531.75429 H 474.2812 q -5.27903,0 -8.95835,-3.60527 -5.11905,-4.91626 -5.11905,-13.4378 0,-10.16029 6.87872,-14.7488 3.03944,-2.13039 7.19868,-2.13039 h 92.30301 q 5.439,0 9.2783,3.60526 4.95908,4.7524 4.95908,13.4378 0,9.99643 -6.87873,14.74881 -3.03944,2.13039 -7.35865,2.13039 H 542.7486 v 177.14959 h 23.83561 q 5.439,0 9.2783,3.60527 4.95908,4.75239 4.95908,13.43781 0,9.99641 -6.87873,14.74881 -3.03944,2.13038 -7.35865,2.13038 H 474.2812 q -5.27903,0 -8.95835,-3.60527 -5.11905,-4.75239 -5.11905,-13.4378 0,-10.1603 6.87872,-14.74882 3.03944,-2.13038 7.19868,-2.13038 h 23.99559 z" /><path
     inkscape:connector-curvature="0"
     id="path35"
     style="font-style:normal;font-variant:normal;font-weight:normal;font-stretch:normal;font-size:medium;line-height:1.25;font-family:'UD Digi Kyokasho NK-B';-inkscape-font-specification:'UD Digi Kyokasho NK-B';letter-spacing:0px;word-spacing:0px;fill:#b72245;fill-opacity:1;stroke:none;stroke-width:2.07246494"
     d="m 672.80467,652.20291 v 75.87442 q 0,5.73566 -3.19942,10.1603 -6.07888,8.35766 -19.35644,8.35766 -11.3579,0 -17.75673,-6.55503 -4.63914,-4.7524 -4.63914,-11.96293 V 535.68731 q 0,-37.85528 36.79323,-37.85528 h 54.70992 q 37.91303,0 63.50832,15.40432 33.11391,19.99282 33.11391,59.65073 0,42.4438 -30.55438,62.6005 -25.27535,16.71533 -67.34761,16.71533 z m 0,-37.85528 h 46.23148 q 23.67565,0 36.79323,-10.48805 12.95761,-10.48804 12.95761,-29.82537 0,-21.4677 -17.43678,-31.30025 -11.83783,-6.7189 -30.71435,-6.7189 h -40.63252 q -7.19867,0 -7.19867,7.3744 z" /></svg>